<svg width="24" height="24" viewBox="0 0 24 24" fill="none" xmlns="http://www.w3.org/2000/svg">
<path fill-rule="evenodd" clip-rule="evenodd" d="M9.38259 3.33725C9.38259 3.14793 9.4578 2.96636 9.59167 2.83249C9.72554 2.69862 9.9071 2.62341 10.0964 2.62341H13.9035C14.0929 2.62341 14.2744 2.69862 14.4083 2.83249C14.5422 2.96636 14.6174 3.14793 14.6174 3.33725C14.6174 3.52657 14.5422 3.70813 14.4083 3.842C14.2744 3.97587 14.0929 4.05108 13.9035 4.05108H10.0964C9.9071 4.05108 9.72554 3.97587 9.59167 3.842C9.4578 3.70813 9.38259 3.52657 9.38259 3.33725ZM20.566 13.8068C20.566 14.9317 20.3444 16.0456 19.9139 17.0849C19.4835 18.1242 18.8525 19.0685 18.0571 19.8639C17.2616 20.6593 16.3173 21.2903 15.2781 21.7208C14.2388 22.1513 13.1249 22.3728 12 22.3728C10.8751 22.3728 9.76119 22.1513 8.72191 21.7208C7.68264 21.2903 6.73833 20.6593 5.9429 19.8639C5.14747 19.0685 4.51651 18.1242 4.08602 17.0849C3.65554 16.0456 3.43398 14.9317 3.43398 13.8068C3.43398 11.535 4.33646 9.35617 5.9429 7.74973C7.54934 6.14329 9.72814 5.2408 12 5.2408C14.2718 5.2408 16.4506 6.14329 18.0571 7.74973C19.6635 9.35617 20.566 11.535 20.566 13.8068ZM12.9765 11.2132C12.7329 11.0443 12.484 10.8831 12.2303 10.7297C11.2091 10.1092 10.6989 9.79887 10.2411 10.1425C9.78424 10.4851 9.74236 11.2046 9.65861 12.6437C9.63576 13.0501 9.62054 13.4489 9.62054 13.8068C9.62054 14.1647 9.63576 14.5635 9.65861 14.9699C9.74236 16.409 9.78424 17.1276 10.2411 17.4712C10.6989 17.8148 11.21 17.5045 12.2303 16.8839C12.4949 16.7231 12.7509 16.5594 12.9765 16.4004C13.2335 16.2196 13.5143 16.0026 13.7969 15.7722C14.8201 14.9375 15.3312 14.5206 15.3312 13.8068C15.3312 13.093 14.8201 12.6761 13.7969 11.8414C13.5143 11.6111 13.2344 11.3941 12.9765 11.2132Z" fill="white"/>
</svg>
